<?xml version="1.0" encoding="UTF-8"?>
<!DOCTYPE svg PUBLIC "-//W3C//DTD SVG 1.1//EN" "http://www.w3.org/Graphics/SVG/1.1/DTD/svg11.dtd">
<svg xmlns="http://www.w3.org/2000/svg" version="1.1" width="381px" height="157px" style="shape-rendering:geometricPrecision; text-rendering:geometricPrecision; image-rendering:optimizeQuality; fill-rule:evenodd; clip-rule:evenodd" xmlns:xlink="http://www.w3.org/1999/xlink">
<g><path style="opacity:1" fill="#020203" d="M -0.5,-0.5 C 126.5,-0.5 253.5,-0.5 380.5,-0.5C 380.5,51.8333 380.5,104.167 380.5,156.5C 253.5,156.5 126.5,156.5 -0.5,156.5C -0.5,104.167 -0.5,51.8333 -0.5,-0.5 Z"/></g>
<g><path style="opacity:1" fill="#2a7688" d="M 202.5,23.5 C 191.293,22.7964 180.293,23.7964 169.5,26.5C 172.282,25.067 175.282,23.9003 178.5,23C 186.677,22.1772 194.677,22.3439 202.5,23.5 Z"/></g>
<g><path style="opacity:1" fill="#41b3ce" d="M 202.5,23.5 C 241.65,36.1237 255.983,62.457 245.5,102.5C 242.833,102.5 240.167,102.5 237.5,102.5C 248.928,67.8562 237.595,44.0229 203.5,31C 173.092,26.1175 152.259,37.9508 141,66.5C 138.432,78.8843 139.598,90.8843 144.5,102.5C 141.833,102.5 139.167,102.5 136.5,102.5C 127.25,74.6573 133.916,51.4906 156.5,33C 160.577,30.2951 164.91,28.1284 169.5,26.5C 180.293,23.7964 191.293,22.7964 202.5,23.5 Z"/></g>
<g><path style="opacity:1" fill="#f9fbfb" d="M 237.5,102.5 C 232.167,102.5 226.833,102.5 221.5,102.5C 221.034,97.5698 221.701,92.9032 223.5,88.5C 226.819,70.4669 220.152,57.8003 203.5,50.5C 203.44,49.9569 203.107,49.6236 202.5,49.5C 201.818,50.2427 201.151,50.9094 200.5,51.5C 199.502,47.3246 196.835,44.9912 192.5,44.5C 189.348,44.9806 187.015,46.6473 185.5,49.5C 183.585,49.2155 181.919,49.5489 180.5,50.5C 172.113,54.2202 166.113,60.2202 162.5,68.5C 161.314,69.7054 161.314,71.0387 162.5,72.5C 156.232,77.0595 155.898,82.0595 161.5,87.5C 161.263,88.791 161.596,89.791 162.5,90.5C 164.061,94.6129 166.394,98.2795 169.5,101.5C 161.193,102.498 152.86,102.831 144.5,102.5C 139.598,90.8843 138.432,78.8843 141,66.5C 152.259,37.9508 173.092,26.1175 203.5,31C 237.595,44.0229 248.928,67.8562 237.5,102.5 Z"/></g>
<g><path style="opacity:1" fill="#161616" d="M 200.5,51.5 C 199.918,58.9691 195.918,61.8024 188.5,60C 185.139,57.0932 184.139,53.5932 185.5,49.5C 187.015,46.6473 189.348,44.9806 192.5,44.5C 196.835,44.9912 199.502,47.3246 200.5,51.5 Z"/></g>
<g><path style="opacity:1" fill="#171717" d="M 180.5,50.5 C 182.344,51.2039 182.844,52.5372 182,54.5C 175.167,58 170,63.1667 166.5,70C 164.537,70.8442 163.204,70.3442 162.5,68.5C 166.113,60.2202 172.113,54.2202 180.5,50.5 Z"/></g>
<g><path style="opacity:1" fill="#c3c3c3" d="M 192.5,46.5 C 193.479,47.7653 194.479,49.0986 195.5,50.5C 194.284,51.0959 192.951,51.2626 191.5,51C 196.221,52.9809 196.554,55.4809 192.5,58.5C 191.914,58.2907 191.414,57.9574 191,57.5C 188.707,53.2932 189.207,49.6266 192.5,46.5 Z"/></g>
<g><path style="opacity:1" fill="#141414" d="M 203.5,50.5 C 220.152,57.8003 226.819,70.4669 223.5,88.5C 222.833,86.8333 222.167,85.1667 221.5,83.5C 220.922,80.7196 220.255,78.0529 219.5,75.5C 219.5,75.1667 219.5,74.8333 219.5,74.5C 219.405,72.2143 218.738,70.2143 217.5,68.5C 214.16,62.3903 209.327,57.7237 203,54.5C 202.235,52.9343 202.402,51.6009 203.5,50.5 Z"/></g>
<g><path style="opacity:1" fill="#cfcfcf" d="M 180.5,50.5 C 181.919,49.5489 183.585,49.2155 185.5,49.5C 184.139,53.5932 185.139,57.0932 188.5,60C 195.918,61.8024 199.918,58.9691 200.5,51.5C 201.151,50.9094 201.818,50.2427 202.5,49.5C 203.107,49.6236 203.44,49.9569 203.5,50.5C 202.402,51.6009 202.235,52.9343 203,54.5C 209.327,57.7237 214.16,62.3903 217.5,68.5C 217.672,69.4916 217.338,70.1583 216.5,70.5C 215.945,66.8082 213.778,65.1416 210,65.5C 208.014,65.5687 206.514,66.2353 205.5,67.5C 205.5,68.1667 205.167,68.5 204.5,68.5C 204.586,67.5041 204.252,66.6708 203.5,66C 200.183,65.5017 196.85,65.335 193.5,65.5C 192.833,65.5 192.167,65.5 191.5,65.5C 187.958,65.1872 184.625,65.5206 181.5,66.5C 179.857,70.2953 179.191,74.2953 179.5,78.5C 179.5,78.8333 179.5,79.1667 179.5,79.5C 178.833,78.8333 178.167,78.1667 177.5,77.5C 177.958,73.4616 178.624,69.4616 179.5,65.5C 175.993,64.9935 172.826,65.6602 170,67.5C 168.925,70.5309 169.925,72.5309 173,73.5C 173.938,75.4885 174.772,77.4885 175.5,79.5C 174.167,79.8333 174.167,80.1667 175.5,80.5C 174.637,84.3946 172.637,87.5612 169.5,90C 169.808,91.4595 170.475,92.6261 171.5,93.5C 171.5,93.8333 171.5,94.1667 171.5,94.5C 170.833,94.5 170.5,94.8333 170.5,95.5C 169.082,93.8133 167.749,91.98 166.5,90C 164.934,89.235 163.601,89.4017 162.5,90.5C 161.596,89.791 161.263,88.791 161.5,87.5C 168.476,89.1795 172.476,86.5128 173.5,79.5C 172.007,73.9127 168.34,71.5793 162.5,72.5C 161.314,71.0387 161.314,69.7054 162.5,68.5C 163.204,70.3442 164.537,70.8442 166.5,70C 170,63.1667 175.167,58 182,54.5C 182.844,52.5372 182.344,51.2039 180.5,50.5 Z"/></g>
<g><path style="opacity:1" fill="#141414" d="M 199.5,59.5 C 200.837,60.3149 201.837,61.4815 202.5,63C 199.5,63.6667 196.5,63.6667 193.5,63C 195.727,62.059 197.727,60.8923 199.5,59.5 Z"/></g>
<g><path style="opacity:1" fill="#101010" d="M 184.5,59.5 C 186.714,60.874 189.047,62.0406 191.5,63C 188.854,63.4974 186.187,63.6641 183.5,63.5C 183.433,62.0413 183.766,60.7079 184.5,59.5 Z"/></g>
<g><path style="opacity:1" fill="#101010" d="M 181.5,56.5 C 182.376,56.3691 183.043,56.7025 183.5,57.5C 182.294,63.0889 178.961,64.9222 173.5,63C 176.053,60.5748 178.72,58.4081 181.5,56.5 Z"/></g>
<g><path style="opacity:1" fill="#131313" d="M 201.5,56.5 C 205.288,57.8985 208.621,60.0651 211.5,63C 205.4,65.0643 202.067,62.8976 201.5,56.5 Z"/></g>
<g><path style="opacity:1" fill="#070707" d="M 191.5,53.5 C 192.289,53.7828 192.956,54.2828 193.5,55C 192.184,55.5281 191.517,55.0281 191.5,53.5 Z"/></g>
<g><path style="opacity:1" fill="#141414" d="M 177.5,77.5 C 177.5,78.8333 176.833,79.5 175.5,79.5C 174.772,77.4885 173.938,75.4885 173,73.5C 169.925,72.5309 168.925,70.5309 170,67.5C 172.826,65.6602 175.993,64.9935 179.5,65.5C 178.624,69.4616 177.958,73.4616 177.5,77.5 Z"/></g>
<g><path style="opacity:1" fill="#060606" d="M 181.5,66.5 C 184.5,66.5 187.5,66.5 190.5,66.5C 190.5,70.5 190.5,74.5 190.5,78.5C 186.833,78.5 183.167,78.5 179.5,78.5C 179.191,74.2953 179.857,70.2953 181.5,66.5 Z"/></g>
<g><path style="opacity:1" fill="#2d2d2d" d="M 181.5,66.5 C 184.625,65.5206 187.958,65.1872 191.5,65.5C 191.5,70.1667 191.5,74.8333 191.5,79.5C 187.5,79.5 183.5,79.5 179.5,79.5C 179.5,79.1667 179.5,78.8333 179.5,78.5C 183.167,78.5 186.833,78.5 190.5,78.5C 190.5,74.5 190.5,70.5 190.5,66.5C 187.5,66.5 184.5,66.5 181.5,66.5 Z"/></g>
<g><path style="opacity:1" fill="#a8a8a8" d="M 191.5,65.5 C 192.167,65.5 192.833,65.5 193.5,65.5C 193.5,69.8333 193.5,74.1667 193.5,78.5C 197.5,78.5 201.5,78.5 205.5,78.5C 205.54,75.1194 205.207,71.7861 204.5,68.5C 205.167,68.5 205.5,68.1667 205.5,67.5C 206.768,69.9052 207.435,72.5718 207.5,75.5C 206.566,76.5676 206.232,77.901 206.5,79.5C 201.5,79.5 196.5,79.5 191.5,79.5C 191.5,74.8333 191.5,70.1667 191.5,65.5 Z"/></g>
<g><path style="opacity:1" fill="#070707" d="M 193.5,65.5 C 196.85,65.335 200.183,65.5017 203.5,66C 204.252,66.6708 204.586,67.5041 204.5,68.5C 205.207,71.7861 205.54,75.1194 205.5,78.5C 201.5,78.5 197.5,78.5 193.5,78.5C 193.5,74.1667 193.5,69.8333 193.5,65.5 Z"/></g>
<g><path style="opacity:1" fill="#0c0c0c" d="M 216.5,70.5 C 217.388,73.0545 217.721,75.7212 217.5,78.5C 214.167,78.5 210.833,78.5 207.5,78.5C 207.5,77.5 207.5,76.5 207.5,75.5C 207.435,72.5718 206.768,69.9052 205.5,67.5C 206.514,66.2353 208.014,65.5687 210,65.5C 213.778,65.1416 215.945,66.8082 216.5,70.5 Z"/></g>
<g><path style="opacity:1" fill="#1f1f1f" d="M 162.5,72.5 C 168.34,71.5793 172.007,73.9127 173.5,79.5C 172.476,86.5128 168.476,89.1795 161.5,87.5C 155.898,82.0595 156.232,77.0595 162.5,72.5 Z"/></g>
<g><path style="opacity:1" fill="#d4d4d4" d="M 162.5,74.5 C 165.908,73.828 168.575,74.828 170.5,77.5C 170.333,77.8333 170.167,78.1667 170,78.5C 167.806,75.6415 165.306,75.1415 162.5,77C 167.541,78.0076 167.208,78.5076 161.5,78.5C 161.5,79.5 161.5,80.5 161.5,81.5C 167.208,81.4924 167.541,81.9924 162.5,83C 165.306,84.8585 167.806,84.3585 170,81.5C 170.507,82.9961 170.007,84.1627 168.5,85C 166.167,85.6667 163.833,85.6667 161.5,85C 157.927,80.6404 158.26,77.1404 162.5,74.5 Z"/></g>
<g><path style="opacity:1" fill="#757575" d="M 217.5,68.5 C 218.738,70.2143 219.405,72.2143 219.5,74.5C 218.549,75.9187 218.216,77.5853 218.5,79.5C 214.629,79.815 210.962,79.4816 207.5,78.5C 210.833,78.5 214.167,78.5 217.5,78.5C 217.721,75.7212 217.388,73.0545 216.5,70.5C 217.338,70.1583 217.672,69.4916 217.5,68.5 Z"/></g>
<g><path style="opacity:1" fill="#f7f7f7" d="M 219.5,74.5 C 219.5,74.8333 219.5,75.1667 219.5,75.5C 218.964,78.6981 219.631,81.3647 221.5,83.5C 219.393,84.4682 217.059,84.8016 214.5,84.5C 214.5,90.5 214.5,96.5 214.5,102.5C 213.517,98.7016 213.183,94.7016 213.5,90.5C 211.5,90.5 209.5,90.5 207.5,90.5C 207.666,94.5138 207.499,98.5138 207,102.5C 206.503,100.19 206.337,97.8568 206.5,95.5C 204.5,95.5 202.5,95.5 200.5,95.5C 199.833,95.5 199.167,95.5 198.5,95.5C 196.833,95.5 195.167,95.5 193.5,95.5C 192.833,95.5 192.167,95.5 191.5,95.5C 188.5,95.5 185.5,95.5 182.5,95.5C 181.833,95.8333 181.167,96.1667 180.5,96.5C 178.052,95.5269 175.385,95.1936 172.5,95.5C 171.833,95.5 171.167,95.5 170.5,95.5C 170.5,94.8333 170.833,94.5 171.5,94.5C 174.167,94.5 176.833,94.5 179.5,94.5C 188.234,95.135 196.567,94.4684 204.5,92.5C 204.833,90.5 205.167,88.5 205.5,86.5C 206.167,87.1667 206.833,87.8333 207.5,88.5C 209.5,88.5 211.5,88.5 213.5,88.5C 213.216,86.5853 213.549,84.9187 214.5,83.5C 215.833,83.5 217.167,83.5 218.5,83.5C 218.5,82.5 218.5,81.5 218.5,80.5C 214.629,80.185 210.962,80.5184 207.5,81.5C 207.5,82.5 207.5,83.5 207.5,84.5C 206.566,83.4324 206.232,82.099 206.5,80.5C 196.75,80.1935 187.084,80.5268 177.5,81.5C 177.158,80.6618 176.492,80.3284 175.5,80.5C 174.167,80.1667 174.167,79.8333 175.5,79.5C 176.833,79.5 177.5,78.8333 177.5,77.5C 178.167,78.1667 178.833,78.8333 179.5,79.5C 183.5,79.5 187.5,79.5 191.5,79.5C 196.5,79.5 201.5,79.5 206.5,79.5C 206.232,77.901 206.566,76.5676 207.5,75.5C 207.5,76.5 207.5,77.5 207.5,78.5C 210.962,79.4816 214.629,79.815 218.5,79.5C 218.216,77.5853 218.549,75.9187 219.5,74.5 Z"/></g>
<g><path style="opacity:1" fill="#626262" d="M 219.5,75.5 C 220.255,78.0529 220.922,80.7196 221.5,83.5C 219.631,81.3647 218.964,78.6981 219.5,75.5 Z"/></g>
<g><path style="opacity:1" fill="#616161" d="M 207.5,81.5 C 210.962,80.5184 214.629,80.185 218.5,80.5C 218.5,81.5 218.5,82.5 218.5,83.5C 217.167,83.5 215.833,83.5 214.5,83.5C 215.263,82.7321 216.263,82.2321 217.5,82C 214.183,81.5017 210.85,81.335 207.5,81.5 Z"/></g>
<g><path style="opacity:1" fill="#0c0c0c" d="M 175.5,80.5 C 176.492,80.3284 177.158,80.6618 177.5,81.5C 177.833,84.8333 178.167,88.1667 178.5,91.5C 176.721,93.3435 174.388,94.0102 171.5,93.5C 170.475,92.6261 169.808,91.4595 169.5,90C 172.637,87.5612 174.637,84.3946 175.5,80.5 Z"/></g>
<g><path style="opacity:1" fill="#9b9b9b" d="M 207.5,84.5 C 207.5,85.8333 207.5,87.1667 207.5,88.5C 206.833,87.8333 206.167,87.1667 205.5,86.5C 205.5,84.8333 205.5,83.1667 205.5,81.5C 201.5,81.5 197.5,81.5 193.5,81.5C 193.5,85.5 193.5,89.5 193.5,93.5C 197.269,93.756 200.936,93.4227 204.5,92.5C 196.567,94.4684 188.234,95.135 179.5,94.5C 179.737,93.209 179.404,92.209 178.5,91.5C 178.167,88.1667 177.833,84.8333 177.5,81.5C 187.084,80.5268 196.75,80.1935 206.5,80.5C 206.232,82.099 206.566,83.4324 207.5,84.5 Z"/></g>
<g><path style="opacity:1" fill="#040404" d="M 179.5,81.5 C 183.5,81.5 187.5,81.5 191.5,81.5C 191.5,85.5 191.5,89.5 191.5,93.5C 188.15,93.665 184.817,93.4983 181.5,93C 180.136,89.3173 179.469,85.484 179.5,81.5 Z"/></g>
<g><path style="opacity:1" fill="#060606" d="M 205.5,86.5 C 205.167,88.5 204.833,90.5 204.5,92.5C 200.936,93.4227 197.269,93.756 193.5,93.5C 193.5,89.5 193.5,85.5 193.5,81.5C 197.5,81.5 201.5,81.5 205.5,81.5C 205.5,83.1667 205.5,84.8333 205.5,86.5 Z"/></g>
<g><path style="opacity:1" fill="#0a0a0a" d="M 207.5,81.5 C 210.85,81.335 214.183,81.5017 217.5,82C 216.263,82.2321 215.263,82.7321 214.5,83.5C 213.549,84.9187 213.216,86.5853 213.5,88.5C 211.5,88.5 209.5,88.5 207.5,88.5C 207.5,87.1667 207.5,85.8333 207.5,84.5C 207.5,83.5 207.5,82.5 207.5,81.5 Z"/></g>
<g><path style="opacity:1" fill="#a5a5a5" d="M 221.5,83.5 C 222.167,85.1667 222.833,86.8333 223.5,88.5C 221.701,92.9032 221.034,97.5698 221.5,102.5C 220.511,97.0247 220.178,91.358 220.5,85.5C 218.833,85.5 217.167,85.5 215.5,85.5C 215.822,91.358 215.489,97.0247 214.5,102.5C 214.5,96.5 214.5,90.5 214.5,84.5C 217.059,84.8016 219.393,84.4682 221.5,83.5 Z"/></g>
<g><path style="opacity:1" fill="#626262" d="M 178.5,91.5 C 179.404,92.209 179.737,93.209 179.5,94.5C 176.833,94.5 174.167,94.5 171.5,94.5C 171.5,94.1667 171.5,93.8333 171.5,93.5C 174.388,94.0102 176.721,93.3435 178.5,91.5 Z"/></g>
<g><path style="opacity:1" fill="#c7c7c7" d="M 170.5,95.5 C 171.167,95.5 171.833,95.5 172.5,95.5C 173.85,97.6829 175.684,99.3496 178,100.5C 180.92,100.13 181.754,98.7972 180.5,96.5C 181.167,96.1667 181.833,95.8333 182.5,95.5C 182.5,96.5 182.5,97.5 182.5,98.5C 185.249,98.2739 187.916,98.6072 190.5,99.5C 191.429,98.3112 191.762,96.9778 191.5,95.5C 192.167,95.5 192.833,95.5 193.5,95.5C 193.5,96.5 193.5,97.5 193.5,98.5C 195.167,98.5 196.833,98.5 198.5,98.5C 198.5,97.5 198.5,96.5 198.5,95.5C 199.167,95.5 199.833,95.5 200.5,95.5C 200.808,97.924 200.474,100.257 199.5,102.5C 197.167,99.8333 194.833,99.8333 192.5,102.5C 187.681,99.8716 182.848,99.8716 178,102.5C 174.358,101.357 171.858,99.0236 170.5,95.5 Z"/></g>
<g><path style="opacity:1" fill="#0d0d0d" d="M 193.5,95.5 C 195.167,95.5 196.833,95.5 198.5,95.5C 198.5,96.5 198.5,97.5 198.5,98.5C 196.833,98.5 195.167,98.5 193.5,98.5C 193.5,97.5 193.5,96.5 193.5,95.5 Z"/></g>
<g><path style="opacity:1" fill="#1a1a1a" d="M 182.5,95.5 C 185.5,95.5 188.5,95.5 191.5,95.5C 191.762,96.9778 191.429,98.3112 190.5,99.5C 187.916,98.6072 185.249,98.2739 182.5,98.5C 182.5,97.5 182.5,96.5 182.5,95.5 Z"/></g>
<g><path style="opacity:1" fill="#141414" d="M 172.5,95.5 C 175.385,95.1936 178.052,95.5269 180.5,96.5C 181.754,98.7972 180.92,100.13 178,100.5C 175.684,99.3496 173.85,97.6829 172.5,95.5 Z"/></g>
<g><path style="opacity:1" fill="#6c6c6c" d="M 331.5,124.5 C 325.833,124.5 320.167,124.5 314.5,124.5C 314.5,125.5 314.5,126.5 314.5,127.5C 316.5,127.5 318.5,127.5 320.5,127.5C 320.5,131.5 320.5,135.5 320.5,139.5C 321.833,139.5 323.167,139.5 324.5,139.5C 324.5,135.5 324.5,131.5 324.5,127.5C 326.833,127.5 329.167,127.5 331.5,127.5C 329.735,128.461 327.735,128.795 325.5,128.5C 325.5,132.5 325.5,136.5 325.5,140.5C 323.5,140.5 321.5,140.5 319.5,140.5C 319.5,136.5 319.5,132.5 319.5,128.5C 317.5,128.5 315.5,128.5 313.5,128.5C 313.5,126.833 313.5,125.167 313.5,123.5C 319.69,123.177 325.69,123.51 331.5,124.5 Z"/></g>
<g><path style="opacity:1" fill="#6c6c6d" d="M 50.5,124.5 C 50.5,129.5 50.5,134.5 50.5,139.5C 51.8333,139.5 53.1667,139.5 54.5,139.5C 54.2155,137.585 54.5489,135.919 55.5,134.5C 55.5,136.5 55.5,138.5 55.5,140.5C 53.5,140.5 51.5,140.5 49.5,140.5C 49.1786,134.974 49.5119,129.64 50.5,124.5 Z"/></g>
<g><path style="opacity:1" fill="#f2f2f2" d="M 50.5,124.5 C 55.8333,124.5 61.1667,124.5 66.5,124.5C 66.5,125.5 66.5,126.5 66.5,127.5C 62.5,127.5 58.5,127.5 54.5,127.5C 54.5,128.5 54.5,129.5 54.5,130.5C 57.5,130.5 60.5,130.5 63.5,130.5C 63.5,131.833 63.5,133.167 63.5,134.5C 60.8333,134.5 58.1667,134.5 55.5,134.5C 54.5489,135.919 54.2155,137.585 54.5,139.5C 53.1667,139.5 51.8333,139.5 50.5,139.5C 50.5,134.5 50.5,129.5 50.5,124.5 Z"/></g>
<g><path style="opacity:1" fill="#e8e8e8" d="M 75.5,124.5 C 80.2973,124.121 84.964,124.621 89.5,126C 91.5234,129.183 92.0234,132.683 91,136.5C 86.4537,140.749 81.2871,141.582 75.5,139C 71.5265,134.098 71.5265,129.264 75.5,124.5 Z"/></g>
<g><path style="opacity:1" fill="#e9e9e9" d="M 98.5,124.5 C 103.959,124.103 109.292,124.603 114.5,126C 115.915,129.182 115.581,132.182 113.5,135C 114.856,136.567 115.523,138.4 115.5,140.5C 112.068,140.873 109.734,139.54 108.5,136.5C 107.082,134.692 105.082,134.025 102.5,134.5C 102.5,136.167 102.5,137.833 102.5,139.5C 101.167,139.5 99.8333,139.5 98.5,139.5C 98.5,134.5 98.5,129.5 98.5,124.5 Z"/></g>
<g><path style="opacity:1" fill="#e5e5e6" d="M 137.5,124.5 C 137.5,125.5 137.5,126.5 137.5,127.5C 134.287,127.19 131.287,127.523 128.5,128.5C 127.053,129.134 126.387,130.301 126.5,132C 126.387,133.699 127.053,134.866 128.5,135.5C 131.287,136.477 134.287,136.81 137.5,136.5C 137.5,137.5 137.5,138.5 137.5,139.5C 133.922,140.589 130.255,140.755 126.5,140C 120.704,135.76 120.037,130.76 124.5,125C 128.821,124.501 133.154,124.334 137.5,124.5 Z"/></g>
<g><path style="opacity:1" fill="#e1e1e1" d="M 149.5,138.5 C 147.274,140.18 145.607,139.847 144.5,137.5C 146.593,133.646 148.426,129.646 150,125.5C 152.381,124.565 154.881,124.232 157.5,124.5C 159.5,129.833 161.5,135.167 163.5,140.5C 161.833,140.5 160.167,140.5 158.5,140.5C 158.5,139.5 158.5,138.5 158.5,137.5C 155.287,137.19 152.287,137.523 149.5,138.5 Z"/></g>
<g><path style="opacity:1" fill="#e2e2e2" d="M 184.5,124.5 C 184.5,125.833 184.5,127.167 184.5,128.5C 181.214,127.793 177.881,127.46 174.5,127.5C 174.5,128.5 174.5,129.5 174.5,130.5C 177.167,130.5 179.833,130.5 182.5,130.5C 183.209,131.404 184.209,131.737 185.5,131.5C 186.384,135.49 185.051,138.323 181.5,140C 177.514,140.499 173.514,140.666 169.5,140.5C 169.5,138.833 169.5,137.167 169.5,135.5C 173.182,135.665 176.848,135.499 180.5,135C 177.833,134.667 175.167,134.333 172.5,134C 169.022,131.294 168.689,128.294 171.5,125C 175.821,124.501 180.154,124.334 184.5,124.5 Z"/></g>
<g><path style="opacity:1" fill="#a6a6a7" d="M 197.5,124.5 C 196.167,124.5 194.833,124.5 193.5,124.5C 193.5,129.5 193.5,134.5 193.5,139.5C 194.833,139.5 196.167,139.5 197.5,139.5C 196.081,140.451 194.415,140.784 192.5,140.5C 192.5,134.833 192.5,129.167 192.5,123.5C 194.415,123.216 196.081,123.549 197.5,124.5 Z"/></g>
<g><path style="opacity:1" fill="#f2f2f2" d="M 197.5,124.5 C 199.47,126.647 201.303,128.98 203,131.5C 204.5,129.333 206,127.167 207.5,125C 209.134,124.506 210.801,124.34 212.5,124.5C 212.5,129.5 212.5,134.5 212.5,139.5C 211.5,139.5 210.5,139.5 209.5,139.5C 209.813,136.753 209.48,134.086 208.5,131.5C 207.893,131.624 207.56,131.957 207.5,132.5C 203.937,137.942 200.77,137.609 198,131.5C 197.503,134.146 197.336,136.813 197.5,139.5C 196.167,139.5 194.833,139.5 193.5,139.5C 193.5,134.5 193.5,129.5 193.5,124.5C 194.833,124.5 196.167,124.5 197.5,124.5 Z"/></g>
<g><path style="opacity:1" fill="#bababa" d="M 212.5,124.5 C 213.488,129.64 213.821,134.974 213.5,140.5C 211.833,140.5 210.167,140.5 208.5,140.5C 208.806,137.615 208.473,134.948 207.5,132.5C 207.56,131.957 207.893,131.624 208.5,131.5C 209.48,134.086 209.813,136.753 209.5,139.5C 210.5,139.5 211.5,139.5 212.5,139.5C 212.5,134.5 212.5,129.5 212.5,124.5 Z"/></g>
<g><path style="opacity:1" fill="#dfdfdf" d="M 225.5,124.5 C 227.924,124.192 230.257,124.526 232.5,125.5C 235.359,130.21 237.359,135.21 238.5,140.5C 235.346,139.584 232.179,138.584 229,137.5C 225.821,138.584 222.654,139.584 219.5,140.5C 221.039,134.973 223.039,129.639 225.5,124.5 Z"/></g>
<g><path style="opacity:1" fill="#f0f0f0" d="M 258.5,124.5 C 259.496,124.414 260.329,124.748 261,125.5C 261.861,128.887 261.361,132.054 259.5,135C 260.289,136.626 261.289,138.126 262.5,139.5C 260.926,140.631 259.259,140.798 257.5,140C 256.5,138.333 255.5,136.667 254.5,135C 252.866,134.506 251.199,134.34 249.5,134.5C 249.5,136.167 249.5,137.833 249.5,139.5C 248.167,139.5 246.833,139.5 245.5,139.5C 245.5,134.5 245.5,129.5 245.5,124.5C 249.833,124.5 254.167,124.5 258.5,124.5 Z"/></g>
<g><path style="opacity:1" fill="#e2e2e2" d="M 268.5,123.5 C 270.167,123.5 271.833,123.5 273.5,123.5C 273.5,125.833 273.5,128.167 273.5,130.5C 276.187,129.336 278.52,127.503 280.5,125C 282.259,124.202 283.926,124.369 285.5,125.5C 283.628,127.535 281.961,129.702 280.5,132C 282.296,134.633 284.296,137.133 286.5,139.5C 284.5,140.833 282.5,140.833 280.5,139.5C 278.973,137.807 277.64,135.973 276.5,134C 275.552,133.517 274.552,133.351 273.5,133.5C 273.5,135.833 273.5,138.167 273.5,140.5C 271.833,140.5 270.167,140.5 268.5,140.5C 268.5,134.833 268.5,129.167 268.5,123.5 Z"/></g>
<g><path style="opacity:1" fill="#fcfcfc" d="M 305.5,130.5 C 305.5,131.5 305.5,132.5 305.5,133.5C 302.5,133.5 299.5,133.5 296.5,133.5C 296.5,134.5 296.5,135.5 296.5,136.5C 300.167,136.5 303.833,136.5 307.5,136.5C 307.5,137.5 307.5,138.5 307.5,139.5C 302.5,139.5 297.5,139.5 292.5,139.5C 292.5,134.5 292.5,129.5 292.5,124.5C 297.5,124.5 302.5,124.5 307.5,124.5C 307.5,125.5 307.5,126.5 307.5,127.5C 303.833,127.5 300.167,127.5 296.5,127.5C 296.5,128.5 296.5,129.5 296.5,130.5C 299.5,130.5 302.5,130.5 305.5,130.5 Z"/></g>
<g><path style="opacity:1" fill="#fafafa" d="M 331.5,124.5 C 331.5,125.5 331.5,126.5 331.5,127.5C 329.167,127.5 326.833,127.5 324.5,127.5C 324.5,131.5 324.5,135.5 324.5,139.5C 323.167,139.5 321.833,139.5 320.5,139.5C 320.5,135.5 320.5,131.5 320.5,127.5C 318.5,127.5 316.5,127.5 314.5,127.5C 314.5,126.5 314.5,125.5 314.5,124.5C 320.167,124.5 325.833,124.5 331.5,124.5 Z"/></g>
<g><path style="opacity:1" fill="#939393" d="M 258.5,124.5 C 254.167,124.5 249.833,124.5 245.5,124.5C 245.5,129.5 245.5,134.5 245.5,139.5C 246.833,139.5 248.167,139.5 249.5,139.5C 248.081,140.451 246.415,140.784 244.5,140.5C 244.5,134.833 244.5,129.167 244.5,123.5C 249.363,123.181 254.03,123.514 258.5,124.5 Z"/></g>
<g><path style="opacity:1" fill="#7b7b7b" d="M 84.5,128.5 C 82.0971,128.448 79.7638,128.781 77.5,129.5C 78.3121,128.007 79.6455,127.34 81.5,127.5C 82.7261,127.52 83.7261,127.853 84.5,128.5 Z"/></g>
<g><path style="opacity:1" fill="#8b8b8c" d="M 137.5,124.5 C 138.434,125.568 138.768,126.901 138.5,128.5C 135.167,128.5 131.833,128.5 128.5,128.5C 131.287,127.523 134.287,127.19 137.5,127.5C 137.5,126.5 137.5,125.5 137.5,124.5 Z"/></g>
<g><path style="opacity:1" fill="#7c7c7d" d="M 256.5,128.5 C 254.396,128.201 252.396,128.534 250.5,129.5C 252.045,130.452 253.712,130.785 255.5,130.5C 253.735,131.461 251.735,131.795 249.5,131.5C 249.5,130.167 249.5,128.833 249.5,127.5C 252.059,127.198 254.393,127.532 256.5,128.5 Z"/></g>
<g><path style="opacity:1" fill="#151515" d="M 84.5,128.5 C 85.7251,129.152 86.3917,130.319 86.5,132C 85.4482,136.371 82.7816,137.537 78.5,135.5C 77.6518,133.591 77.3184,131.591 77.5,129.5C 79.7638,128.781 82.0971,128.448 84.5,128.5 Z"/></g>
<g><path style="opacity:1" fill="#101011" d="M 103.5,128.5 C 105.924,128.192 108.257,128.526 110.5,129.5C 109.333,129.833 108.167,130.167 107,130.5C 105.319,130.392 104.152,129.725 103.5,128.5 Z"/></g>
<g><path style="opacity:1" fill="#474748" d="M 184.5,124.5 C 185.451,125.919 185.784,127.585 185.5,129.5C 184.209,129.263 183.209,129.596 182.5,130.5C 179.833,130.5 177.167,130.5 174.5,130.5C 174.5,129.5 174.5,128.5 174.5,127.5C 177.881,127.46 181.214,127.793 184.5,128.5C 184.5,127.167 184.5,125.833 184.5,124.5 Z"/></g>
<g><path style="opacity:1" fill="#0d0d0e" d="M 256.5,128.5 C 256.672,129.492 256.338,130.158 255.5,130.5C 253.712,130.785 252.045,130.452 250.5,129.5C 252.396,128.534 254.396,128.201 256.5,128.5 Z"/></g>
<g><path style="opacity:1" fill="#686869" d="M 66.5,127.5 C 63.023,128.323 59.3563,128.823 55.5,129C 58.3647,129.183 61.0314,129.683 63.5,130.5C 60.5,130.5 57.5,130.5 54.5,130.5C 54.5,129.5 54.5,128.5 54.5,127.5C 58.5,127.5 62.5,127.5 66.5,127.5 Z"/></g>
<g><path style="opacity:1" fill="#3a3a3b" d="M 228.5,128.5 C 229.479,129.765 230.479,131.099 231.5,132.5C 230.311,133.429 228.978,133.762 227.5,133.5C 227.366,131.708 227.699,130.042 228.5,128.5 Z"/></g>
<g><path style="opacity:1" fill="#49494a" d="M 153.5,129.5 C 155.104,130.287 155.771,131.62 155.5,133.5C 151.155,133.702 150.488,132.369 153.5,129.5 Z"/></g>
<g><path style="opacity:1" fill="#727273" d="M 98.5,124.5 C 98.5,129.5 98.5,134.5 98.5,139.5C 99.8333,139.5 101.167,139.5 102.5,139.5C 102.5,137.833 102.5,136.167 102.5,134.5C 105.082,134.025 107.082,134.692 108.5,136.5C 106.958,135.699 105.292,135.366 103.5,135.5C 103.5,137.167 103.5,138.833 103.5,140.5C 101.5,140.5 99.5,140.5 97.5,140.5C 97.1786,134.974 97.5119,129.64 98.5,124.5 Z"/></g>
<g><path style="opacity:1" fill="#8d8d8e" d="M 128.5,135.5 C 131.833,135.5 135.167,135.5 138.5,135.5C 138.768,137.099 138.434,138.432 137.5,139.5C 137.5,138.5 137.5,137.5 137.5,136.5C 134.287,136.81 131.287,136.477 128.5,135.5 Z"/></g>
<g><path style="opacity:1" fill="#686869" d="M 144.5,137.5 C 145.607,139.847 147.274,140.18 149.5,138.5C 148.082,140.308 146.082,140.975 143.5,140.5C 143.263,139.209 143.596,138.209 144.5,137.5 Z"/></g>
<g><path style="opacity:1" fill="#787879" d="M 305.5,130.5 C 302.5,130.5 299.5,130.5 296.5,130.5C 296.5,129.5 296.5,128.5 296.5,127.5C 300.167,127.5 303.833,127.5 307.5,127.5C 307.5,126.5 307.5,125.5 307.5,124.5C 302.5,124.5 297.5,124.5 292.5,124.5C 292.5,129.5 292.5,134.5 292.5,139.5C 297.5,139.5 302.5,139.5 307.5,139.5C 307.5,138.5 307.5,137.5 307.5,136.5C 303.833,136.5 300.167,136.5 296.5,136.5C 296.5,135.5 296.5,134.5 296.5,133.5C 299.5,133.5 302.5,133.5 305.5,133.5C 303.031,134.317 300.365,134.817 297.5,135C 301.152,135.499 304.818,135.665 308.5,135.5C 308.5,137.167 308.5,138.833 308.5,140.5C 302.833,140.5 297.167,140.5 291.5,140.5C 291.5,134.833 291.5,129.167 291.5,123.5C 297.167,123.5 302.833,123.5 308.5,123.5C 308.5,125.167 308.5,126.833 308.5,128.5C 304.818,128.335 301.152,128.501 297.5,129C 300.365,129.183 303.031,129.683 305.5,130.5 Z"/></g>
</svg>
